<svg width="12" height="12" viewBox="0 0 12 12" fill="none" xmlns="http://www.w3.org/2000/svg">
<mask id="mask0_1_1265" style="mask-type:alpha" maskUnits="userSpaceOnUse" x="0" y="0" width="12" height="12">
<rect width="12" height="12" transform="matrix(-1 0 0 1 12 0)" fill="#D9D9D9"/>
</mask>
<g mask="url(#mask0_1_1265)">
<path d="M7.40727 5.99976L3.64089 9.76613C3.54156 9.86547 3.49314 9.98242 3.49564 10.117C3.49823 10.2517 3.54918 10.3687 3.64852 10.468C3.74793 10.5673 3.86493 10.617 3.99952 10.617C4.1341 10.617 4.2511 10.5673 4.35052 10.468L8.18602 6.64013C8.27643 6.54971 8.34343 6.44842 8.38702 6.33626C8.4306 6.22409 8.45239 6.11192 8.45239 5.99976C8.45239 5.88759 8.4306 5.77542 8.38702 5.66326C8.34343 5.55109 8.27643 5.4498 8.18602 5.35938L4.35052 1.52376C4.2511 1.42442 4.13281 1.37605 3.99564 1.37863C3.85848 1.38121 3.74023 1.43217 3.64089 1.53151C3.54156 1.63084 3.49189 1.74784 3.49189 1.88251C3.49189 2.01709 3.54156 2.13405 3.64089 2.23338L7.40727 5.99976Z" fill="white"/>
</g>
</svg>
